<svg xmlns="http://www.w3.org/2000/svg" viewBox="0 0 46.69 51.33"><defs><style>.cls-1{fill:#e6e6e6;}</style></defs><g id="Layer_2" data-name="Layer 2"><g id="Layer_1-2" data-name="Layer 1"><path class="cls-1" d="M0,37.13c0-9.85,8.05-14,19-16.1L32.3,18.47V16.38c0-5.68-3.51-9-10.52-9-6.34,0-10.51,3.12-12.21,8.62l-8-2.09C4.17,5.78,11.55,0,22.16,0,33.62,0,40.63,5.4,40.63,16V39.87c0,3.79,2.56,4.55,6.06,3.79v6.82c-7.95,1-12.69-.57-13.92-5.78-3.22,3.89-9,6.63-16.1,6.63C7.48,51.33,0,46,0,37.13Zm32.3-12L21.22,27.18c-7.3,1.42-12.6,3.6-12.6,9.57,0,4.83,3.6,7.67,9.28,7.67,7.58,0,14.4-4.74,14.4-11.08Z"/></g></g></svg>